<?xml version="1.0" encoding="utf-8"?>
<!-- Generator: Adobe Illustrator 27.5.0, SVG Export Plug-In . SVG Version: 6.00 Build 0)  -->
<svg version="1.1" id="Capa_1" xmlns="http://www.w3.org/2000/svg" xmlns:xlink="http://www.w3.org/1999/xlink" x="0px" y="0px"
	 viewBox="0 0 2122 2122" style="enable-background:new 0 0 2122 2122;" xml:space="preserve">
<g>
	<path style="fill:#444183;" d="M1060.663,1908.797c142.802,0,277.368-35.294,395.427-97.631
		c195.11-102.995,345.188-279.87,413.012-493.363c25.797-81.095,39.693-167.501,39.693-257.142
		c0-468.419-379.714-848.137-848.132-848.137c-136.3,0-265.073,32.137-379.177,89.277
		C490.834,397.24,341.18,562.406,265.912,763.855c-34.521,92.37-53.387,192.386-53.387,296.806
		C212.526,1529.084,592.239,1908.797,1060.663,1908.797z"/>
	<path style="fill:#2BB7BE;" d="M786.211,506.875l0.008,0.016c83.063-41.347,176.694-64.639,275.779-64.639
		c342.271,0,619.737,277.472,619.737,619.743c0,63.412-9.545,124.591-27.24,182.202l0.02,0.008l166.21,58.209
		c24.255-76.238,37.318-157.476,37.318-241.753c0-440.391-356.995-797.381-797.38-797.381c-128.148,0-249.206,30.211-356.488,83.933
		l82.023,159.639L786.211,506.875z"/>
	<path style="fill:#2BB7BE;" d="M1060.663,1858.041c134.255,0,260.767-33.176,371.763-91.784l-80.396-156.439l-0.01-0.018
		l-0.011-0.021c-86.536,45.911-185.225,71.954-290.011,71.954c-342.277,0-619.743-277.466-619.743-619.738
		c0-77.885,14.409-152.394,40.638-221.063l-0.034-0.012l-0.01-0.004l-169.377-59.299c-32.457,86.844-50.195,180.874-50.195,279.043
		C263.277,1501.051,620.273,1858.041,1060.663,1858.041z"/>
	<path style="fill:#FFD548;" d="M946.014,817.881c34.772-16.45,73.625-25.685,114.646-25.685
		c148.268,0,268.465,120.195,268.465,268.465c0,23.016-2.907,45.351-8.355,66.67l0.019,0.006l333.705,116.86
		c17.695-57.611,27.24-118.79,27.24-182.202c0-342.271-277.466-619.743-619.737-619.743c-99.085,0-192.715,23.292-275.779,64.639
		l159.788,310.976L946.014,817.881z"/>
	<path style="fill:#FFD548;" d="M1190.58,1295.6c-38.503,21.338-82.781,33.526-129.919,33.526
		c-148.27,0-268.465-120.197-268.465-268.465c0-36.908,7.457-72.072,20.932-104.08L482.893,840.933
		c-26.229,68.668-40.638,143.178-40.638,221.063c0,342.271,277.466,619.738,619.743,619.738
		c104.786,0,203.475-26.044,290.011-71.954l-161.416-314.153L1190.58,1295.6z"/>
	<path style="fill:#86CFE7;" d="M786.198,506.851l-82.023-159.639c-179.243,89.725-319.937,245.009-390.703,434.405l169.377,59.299
		C538.516,695.17,647.619,575.832,786.198,506.851z"/>
	<path style="fill:#FFFBD6;" d="M946.014,817.881l-0.007-0.013L786.219,506.892l-0.008-0.016l-0.013-0.024
		C647.619,575.832,538.516,695.17,482.849,840.917l0.01,0.004l0.034,0.012l330.235,115.649
		C838.808,895.58,886.389,846.087,946.014,817.881z"/>
	<path style="fill:#86CFE7;" d="M1654.516,1244.205c-48.571,158.159-158.725,289.342-302.486,365.613l80.396,156.439
		c183.436-96.839,324.533-263.122,388.299-463.843L1654.516,1244.205L1654.516,1244.205z"/>
	<path style="fill:#FFFBD6;" d="M1654.516,1244.205L1654.516,1244.205l-0.021-0.008l-333.705-116.86l-0.019-0.006
		c-18.49,72.352-66.387,132.91-130.191,168.27l0.013,0.025l161.416,314.153l0.011,0.021l0.01,0.018
		C1495.791,1533.547,1605.944,1402.364,1654.516,1244.205z"/>
	<path style="fill:#E72F75;" d="M1060.661,792.196c-41.022,0-79.874,9.235-114.646,25.685
		c-59.626,28.206-107.206,77.699-132.886,138.7c-13.475,32.008-20.932,67.172-20.932,104.08
		c0,148.268,120.195,268.465,268.465,268.465c47.139,0,91.416-12.188,129.919-33.526c63.804-35.36,111.701-95.917,130.191-168.27
		c5.448-21.318,8.355-43.654,8.355-66.67C1329.126,912.391,1208.929,792.196,1060.661,792.196z"/>
	
		<ellipse transform="matrix(0.9517 -0.3069 0.3069 0.9517 -274.3565 376.7518)" style="fill:#444183;" cx="1060.661" cy="1060.661" rx="108.187" ry="108.187"/>
	<path style="fill:#FFFFFF;" d="M1181.07,754.664c128.813,36.936,218.268,152.148,221.856,286.258
		c0.858,32.044,50.753,32.171,49.89,0c-4.182-156.316-108.107-291.247-258.482-334.367
		C1163.413,697.69,1150.213,745.814,1181.07,754.664z"/>
	<path style="fill:#FFFFFF;" d="M1181.713,602.981c218.124,34.197,375.624,225.907,364.691,446.967
		c-1.588,32.092,48.307,32.01,49.89,0c11.922-241.081-162.477-457.629-401.32-495.076
		C1163.565,549.948,1150.035,598.014,1181.713,602.981z"/>
	<path style="fill:#FFFFFF;" d="M990.167,1395.226c-139.476-22.646-246.1-127.932-270.226-267.205
		c-5.469-31.576-53.557-18.19-48.107,13.262c26.76,154.489,150.263,276.916,305.071,302.053
		C1008.313,1448.434,1021.828,1400.369,990.167,1395.226z"/>
	<path style="fill:#FFFFFF;" d="M973.791,1544.599c-208.692-40.945-366.396-208.384-396.248-418.774
		c-4.49-31.659-52.57-18.19-48.107,13.264c32.059,225.948,207.379,409.726,431.093,453.617
		C991.892,1598.86,1005.319,1550.785,973.791,1544.599z"/>
</g>
</svg>
